<svg xmlns="http://www.w3.org/2000/svg" version="1.1" xmlns:xlink="http://www.w3.org/1999/xlink" xmlns:svgjs="http://svgjs.com/svgjs" width="1440" height="560" preserveAspectRatio="none" viewBox="0 0 1440 560"><g mask="url(&quot;#SvgjsMask3079&quot;)" fill="none"><rect width="1440" height="560" x="0" y="0" fill="url(#SvgjsLinearGradient3080)"></rect><path d="M1313.9346284178014 451.1601840808104L1461.6395922040192 448.5819843477019 1459.0613924709107 300.8770205614842 1311.356428684693 303.45522029459266z" fill="rgba(28, 83, 142, 0.4)" class="triangle-float1"></path><path d="M351.359,388.905C376.962,386.801,394.832,366.794,408.186,344.849C422.299,321.656,436.567,294.189,423.464,270.411C410.084,246.13,379.05,240.382,351.359,241.727C326.264,242.946,304.34,255.939,290.444,276.871C274.589,300.754,261.975,330.555,275.669,355.74C289.771,381.677,321.935,391.323,351.359,388.905" fill="rgba(28, 83, 142, 0.4)" class="triangle-float2"></path><path d="M1011.0270308631764 443.7909411155102L880.844173878955 522.0126931498259 959.0659259132707 652.1955501340472 1089.248782897492 573.9737980997315z" fill="rgba(28, 83, 142, 0.4)" class="triangle-float1"></path><path d="M442.48513657711806 161.41042303339344L426.1896527397641 77.57742621575493 358.65213975947955 177.7059068707474z" fill="rgba(28, 83, 142, 0.4)" class="triangle-float3"></path><path d="M636.533,178.482C671.721,178.514,704.257,161.166,723.054,131.419C743.312,99.36,750.481,59.421,733.048,25.743C714.255,-10.562,677.394,-37.001,636.533,-35.727C597.388,-34.506,567.884,-3.342,549.912,31.455C533.549,63.136,532.187,100.538,550.287,131.26C568.119,161.527,601.404,178.45,636.533,178.482" fill="rgba(28, 83, 142, 0.4)" class="triangle-float1"></path><path d="M1213.978,327.977C1266.907,330.434,1319.242,302.447,1343.195,255.184C1365.42,211.33,1346.595,160.689,1319.578,119.613C1295.647,83.229,1257.463,61.079,1213.978,58.726C1165.362,56.096,1111.384,65.133,1086.539,107.004C1061.347,149.461,1079.332,201.313,1103.996,244.079C1128.686,286.89,1164.611,325.685,1213.978,327.977" fill="rgba(28, 83, 142, 0.4)" class="triangle-float3"></path><path d="M397.3110283446309 191.73112444208866L277.55019051470777 170.49635447143044 312.16548612530426 271.0264725176889z" fill="rgba(28, 83, 142, 0.4)" class="triangle-float1"></path></g><defs><mask id="SvgjsMask3079"><rect width="1440" height="560" fill="#ffffff"></rect></mask><linearGradient x1="15.28%" y1="-39.29%" x2="84.72%" y2="139.29%" gradientUnits="userSpaceOnUse" id="SvgjsLinearGradient3080"><stop stop-color="rgba(17, 0, 64, 1)" offset="0.02"></stop><stop stop-color="rgba(47, 0, 48, 1)" offset="1"></stop></linearGradient><style>
            @keyframes float1 {
                0%{transform: translate(0, 0)}
                50%{transform: translate(-10px, 0)}
                100%{transform: translate(0, 0)}
            }

            .triangle-float1 {
                animation: float1 5s infinite;
            }

            @keyframes float2 {
                0%{transform: translate(0, 0)}
                50%{transform: translate(-5px, -5px)}
                100%{transform: translate(0, 0)}
            }

            .triangle-float2 {
                animation: float2 4s infinite;
            }

            @keyframes float3 {
                0%{transform: translate(0, 0)}
                50%{transform: translate(0, -10px)}
                100%{transform: translate(0, 0)}
            }

            .triangle-float3 {
                animation: float3 6s infinite;
            }
        </style></defs></svg>